<svg width="25" height="22" viewBox="0 0 25 22" fill="none" xmlns="http://www.w3.org/2000/svg">
<path d="M6.25 14.1875H13.7812C14.0312 14.1875 14.245 14.0987 14.4225 13.9212C14.5992 13.7446 14.6875 13.5208 14.6875 13.25C14.6875 12.9792 14.5992 12.755 14.4225 12.5775C14.245 12.4008 14.0208 12.3125 13.75 12.3125H6.21875C5.96875 12.3125 5.75542 12.4008 5.57875 12.5775C5.40125 12.755 5.3125 12.9792 5.3125 13.25C5.3125 13.5208 5.40125 13.7446 5.57875 13.9212C5.75542 14.0987 5.97917 14.1875 6.25 14.1875ZM6.25 10.4375H18.7812C19.0312 10.4375 19.245 10.3487 19.4225 10.1712C19.5992 9.99458 19.6875 9.77083 19.6875 9.5C19.6875 9.22917 19.5992 9.005 19.4225 8.8275C19.245 8.65083 19.0208 8.5625 18.75 8.5625H6.21875C5.96875 8.5625 5.75542 8.65083 5.57875 8.8275C5.40125 9.005 5.3125 9.22917 5.3125 9.5C5.3125 9.77083 5.40125 9.99458 5.57875 10.1712C5.75542 10.3487 5.97917 10.4375 6.25 10.4375ZM6.25 6.6875H18.7812C19.0312 6.6875 19.245 6.59875 19.4225 6.42125C19.5992 6.24458 19.6875 6.02083 19.6875 5.75C19.6875 5.47917 19.5992 5.25542 19.4225 5.07875C19.245 4.90125 19.0208 4.8125 18.75 4.8125H6.21875C5.96875 4.8125 5.75542 4.90125 5.57875 5.07875C5.40125 5.25542 5.3125 5.47917 5.3125 5.75C5.3125 6.02083 5.40125 6.24458 5.57875 6.42125C5.75542 6.59875 5.97917 6.6875 6.25 6.6875ZM0.625 20.5625V2.375C0.625 1.75 0.84375 1.21875 1.28125 0.78125C1.71875 0.34375 2.25 0.125 2.875 0.125H22.125C22.75 0.125 23.2812 0.34375 23.7188 0.78125C24.1562 1.21875 24.375 1.75 24.375 2.375V16.625C24.375 17.25 24.1562 17.7812 23.7188 18.2188C23.2812 18.6562 22.75 18.875 22.125 18.875H5.0625L2.53125 21.375C2.17708 21.7292 1.77083 21.8075 1.3125 21.61C0.854167 21.4117 0.625 21.0625 0.625 20.5625ZM2.5 18.7812L4.28125 17H22.125C22.2292 17 22.3179 16.9633 22.3913 16.89C22.4638 16.8175 22.5 16.7292 22.5 16.625V2.375C22.5 2.27083 22.4638 2.18208 22.3913 2.10875C22.3179 2.03625 22.2292 2 22.125 2H2.875C2.77083 2 2.6825 2.03625 2.61 2.10875C2.53667 2.18208 2.5 2.27083 2.5 2.375V18.7812ZM2.5 2.375V2V18.7812V2.375Z" fill="#686868"/>
</svg>
