<svg width="20" height="21" viewBox="0 0 20 21" fill="none" xmlns="http://www.w3.org/2000/svg">
<path d="M2.5 20.625C1.97917 20.625 1.53667 20.4425 1.1725 20.0775C0.8075 19.7133 0.625 19.2708 0.625 18.75V7.5C0.625 7.20833 0.6925 6.92708 0.8275 6.65625C0.963334 6.38542 1.14583 6.16667 1.375 6L8.875 0.34375C9.04167 0.21875 9.21875 0.13 9.40625 0.0774997C9.59375 0.0258331 9.79167 0 10 0C10.2083 0 10.4062 0.0258331 10.5938 0.0774997C10.7813 0.13 10.9583 0.21875 11.125 0.34375L18.625 6C18.8542 6.16667 19.0362 6.38542 19.1712 6.65625C19.3071 6.92708 19.375 7.20833 19.375 7.5V18.75C19.375 19.2708 19.1925 19.7133 18.8275 20.0775C18.4633 20.4425 18.0208 20.625 17.5 20.625H12.375V12.25H7.625V20.625H2.5Z" fill="#398AB9"/>
</svg>
