<svg width="22" height="22" viewBox="0 0 22 22" fill="none" xmlns="http://www.w3.org/2000/svg">
<path d="M4.68749 21.25C4.14582 21.25 3.66666 21.0675 3.24999 20.7025C2.83332 20.3383 2.57291 19.8854 2.46874 19.3437L0.71874 8.8125C0.65624 8.47917 0.734573 8.17708 0.953739 7.90625C1.17207 7.63542 1.45832 7.5 1.81249 7.5H20.1875C20.5417 7.5 20.8283 7.63542 21.0475 7.90625C21.2658 8.17708 21.3437 8.47917 21.2812 8.8125L19.5312 19.3437C19.4271 19.8854 19.1667 20.3383 18.75 20.7025C18.3333 21.0675 17.8542 21.25 17.3125 21.25H4.68749ZM2.74999 9.375L4.28124 19.0312C4.30207 19.1354 4.34916 19.2188 4.42249 19.2812C4.49499 19.3438 4.57291 19.375 4.65624 19.375H17.3437C17.4271 19.375 17.5054 19.3438 17.5787 19.2812C17.6512 19.2188 17.6979 19.1354 17.7187 19.0312L19.25 9.375H2.74999ZM8.49999 14.0625H13.5C13.7708 14.0625 13.995 13.9688 14.1725 13.7812C14.3492 13.5938 14.4375 13.375 14.4375 13.125C14.4375 12.8542 14.3492 12.63 14.1725 12.4525C13.995 12.2758 13.7708 12.1875 13.5 12.1875H8.49999C8.22916 12.1875 8.00541 12.2758 7.82874 12.4525C7.65124 12.63 7.56249 12.8542 7.56249 13.125C7.56249 13.375 7.65124 13.5938 7.82874 13.7812C8.00541 13.9688 8.22916 14.0625 8.49999 14.0625ZM3.49999 6C3.22916 6 3.00541 5.91125 2.82874 5.73375C2.65124 5.55708 2.56249 5.33333 2.56249 5.0625C2.56249 4.79167 2.65124 4.56792 2.82874 4.39125C3.00541 4.21375 3.22916 4.125 3.49999 4.125H18.5C18.7708 4.125 18.995 4.21375 19.1725 4.39125C19.3492 4.56792 19.4375 4.79167 19.4375 5.0625C19.4375 5.33333 19.3492 5.55708 19.1725 5.73375C18.995 5.91125 18.7708 6 18.5 6H3.49999ZM5.99999 2.625C5.72916 2.625 5.50541 2.53667 5.32874 2.36C5.15124 2.1825 5.06249 1.95833 5.06249 1.6875C5.06249 1.4375 5.15124 1.21875 5.32874 1.03125C5.50541 0.84375 5.72916 0.75 5.99999 0.75H16C16.2708 0.75 16.495 0.84375 16.6725 1.03125C16.8492 1.21875 16.9375 1.4375 16.9375 1.6875C16.9375 1.95833 16.8492 2.1825 16.6725 2.36C16.495 2.53667 16.2708 2.625 16 2.625H5.99999Z" fill="#686868"/>
</svg>
