<svg width="23" height="22" viewBox="0 0 23 22" fill="none" xmlns="http://www.w3.org/2000/svg">
<path fill-rule="evenodd" clip-rule="evenodd" d="M22.06 11.25C22.06 10.47 21.99 9.72 21.86 9H11.5V13.255H17.42C17.165 14.63 16.39 15.795 15.225 16.575V19.335H18.78C20.86 17.42 22.06 14.6 22.06 11.25Z" fill="#4285F4"/>
<path fill-rule="evenodd" clip-rule="evenodd" d="M11.5 22C14.47 22 16.96 21.015 18.78 19.335L15.225 16.575C14.24 17.235 12.98 17.625 11.5 17.625C8.63501 17.625 6.21001 15.69 5.34501 13.09H1.67001V15.94C3.48001 19.535 7.20001 22 11.5 22Z" fill="#34A853"/>
<path fill-rule="evenodd" clip-rule="evenodd" d="M5.345 13.0901C5.125 12.4301 5 11.7251 5 11.0001C5 10.2751 5.125 9.57006 5.345 8.91006V6.06006H1.67C0.925 7.54506 0.5 9.22506 0.5 11.0001C0.5 12.7751 0.925 14.4551 1.67 15.9401L5.345 13.0901Z" fill="#FBBC05"/>
<path fill-rule="evenodd" clip-rule="evenodd" d="M11.5 4.375C13.115 4.375 14.565 4.93 15.705 6.02L18.86 2.865C16.955 1.09 14.465 0 11.5 0C7.20001 0 3.48001 2.465 1.67001 6.06L5.34501 8.91C6.21001 6.31 8.63501 4.375 11.5 4.375Z" fill="#EA4335"/>
</svg>
